<svg xmlns="http://www.w3.org/2000/svg" xmlns:xlink="http://www.w3.org/1999/xlink" width="1290" height="407.36"><rect width="1290" height="407.36" rx="5" ry="5" class="a"/><svg y="0%" x="0%"><circle cx="20" cy="20" r="6" fill="#ff5f58"/><circle cx="40" cy="20" r="6" fill="#ffbd2e"/><circle cx="60" cy="20" r="6" fill="#18c132"/></svg><svg height="347.36" viewBox="0 0 125 34.736" width="1250" x="15" xmlns="http://www.w3.org/2000/svg" xmlns:xlink="http://www.w3.org/1999/xlink" y="50"><style>@keyframes t{0%{transform:translateX(0)}1.63%{transform:translateX(-125px)}1.64%{transform:translateX(-250px)}1.97%{transform:translateX(-375px)}10.73%{transform:translateX(-500px)}15%{transform:translateX(-625px)}27.76%{transform:translateX(-750px)}40.53%{transform:translateX(-875px)}53.29%{transform:translateX(-1000px)}66.03%{transform:translateX(-1125px)}78.84%{transform:translateX(-1250px)}to{transform:translateX(-1375px)}}.a{fill:#282d35}.f{fill:#5faf00;font-weight:700;white-space:pre}.g,.h,.i,.j,.k,.l{fill:#d0d0d0;white-space:pre}.h,.i,.j,.k,.l{fill:#ffaf00}.i,.j,.k,.l{fill:#71bef2}.j,.k,.l{fill:#b9c0cb}.k,.l{fill:#66c2cd}.l{fill:#b9c0cb;font-weight:700}.m{fill:#dadada}.n,.o{fill:#262626;white-space:pre}.o{fill:#dbab79}</style><g font-family="Monaco,Consolas,Menlo,'Bitstream Vera Sans Mono','Powerline Symbols',monospace" font-size="1.67"><defs><symbol id="1"><text y="1.67" class="f">source</text><text x="6.012" y="1.67" class="g">(</text><text x="7.014" y="1.67" class="h">&quot;example.R&quot;</text><text x="18.036" y="1.67" class="g">)</text></symbol><symbol id="2"><text y="1.67" class="i">r$&gt;</text><text x="4.008" y="1.67" class="f">source</text><text x="10.02" y="1.67" class="g">(</text><text x="11.022" y="1.67" class="h">&quot;example.R&quot;</text><text x="22.044" y="1.67" class="g">)</text></symbol><symbol id="3"><text y="1.67" class="j">→</text><text x="2.004" y="1.67" class="j">Hello</text><text x="8.016" y="1.67" class="j">from</text><text x="13.026" y="1.67" class="i">logdec</text><text x="19.038" y="1.67" class="j">!</text></symbol><symbol id="4"><text y="1.67" class="k">ℹ</text><text x="2.004" y="1.67" class="l">logdec</text><text x="9.018" y="1.67" class="j">allows</text><text x="16.032" y="1.67" class="j">you</text><text x="20.04" y="1.67" class="j">to</text><text x="23.046" y="1.67" class="j">create</text><text x="30.06" y="1.67" class="j">output</text><text x="37.074" y="1.67" class="j">messages</text><text x="46.092" y="1.67" class="i">directly</text><text x="55.11" y="1.67" class="j">from</text><text x="60.12" y="1.67" class="j">comments!</text></symbol><symbol id="5"><text y="1.67" class="k">ℹ</text><text x="2.004" y="1.67" class="j">All</text><text x="6.012" y="1.67" class="j">you</text><text x="10.02" y="1.67" class="j">need</text><text x="15.03" y="1.67" class="j">to</text><text x="18.036" y="1.67" class="j">do</text><text x="21.042" y="1.67" class="j">is</text><text x="24.048" y="1.67" class="j">install</text><text x="32.064" y="1.67" class="l">logdec</text><text x="38.076" y="1.67" class="j">,</text><text x="40.08" y="1.67" class="j">then</text><text x="45.09" y="1.67" class="j">call</text><path class="m" d="M50.1 0h18v2.171h-18z"/><text x="50.1" y="1.67" class="n">`logdec::output()`</text><text x="69.138" y="1.67" class="j">at</text><text x="72.144" y="1.67" class="j">the</text><text x="76.152" y="1.67" class="j">top</text><text x="80.16" y="1.67" class="j">of</text><text x="83.166" y="1.67" class="j">your</text><text x="88.176" y="1.67" class="j">R</text><text x="90.18" y="1.67" class="j">file.</text></symbol><symbol id="6"><text y="1.67" class="k">ℹ</text><text x="2.004" y="1.67" class="j">You</text><text x="6.012" y="1.67" class="j">can</text><text x="10.02" y="1.67" class="j">even</text><text x="15.03" y="1.67" class="j">use</text><text x="19.038" y="1.67" class="j">glue</text><text x="24.048" y="1.67" class="j">to</text><text x="27.054" y="1.67" class="j">pass</text><text x="32.064" y="1.67" class="j">variables</text><text x="42.084" y="1.67" class="j">to</text><text x="45.09" y="1.67" class="j">your</text><text x="50.1" y="1.67" class="j">comments!</text><text x="60.12" y="1.67" class="j">Here&apos;s</text><text x="67.134" y="1.67" class="j">some</text><text x="72.144" y="1.67" class="j">random</text><text x="79.158" y="1.67" class="j">value</text><text x="85.17" y="1.67" class="j">from</text><path class="m" d="M90.18 0h9v2.171h-9z"/><text x="90.18" y="1.67" class="n">`rnorm()`</text><text x="99.198" y="1.67" class="j">:</text><text x="101.202" y="1.67" class="i">-0.818470533493526</text></symbol><symbol id="7"><text y="1.67" class="o">!</text><text x="2.004" y="1.67" class="j">However,</text><text x="11.022" y="1.67" class="j">there</text><text x="17.034" y="1.67" class="j">are</text><text x="21.042" y="1.67" class="o">some</text><text x="26.052" y="1.67" class="o">limitations</text><text x="37.074" y="1.67" class="j">,</text><text x="39.078" y="1.67" class="j">such</text><text x="44.088" y="1.67" class="j">as</text><text x="47.094" y="1.67" class="j">with</text><text x="52.104" y="1.67" class="j">console</text><text x="60.12" y="1.67" class="j">and</text><text x="64.128" y="1.67" class="j">package</text><text x="72.144" y="1.67" class="j">development</text><text x="84.168" y="1.67" class="j">use.</text></symbol><symbol id="8"><text y="1.67" style="white-space:pre" fill="#a8cc8c">✔</text><text x="2.004" y="1.67" class="j">There</text><text x="8.016" y="1.67" class="j">are</text><text x="12.024" y="1.67" class="j">ways</text><text x="17.034" y="1.67" class="j">to</text><text x="20.04" y="1.67" class="j">work</text><text x="25.05" y="1.67" class="j">around</text><text x="32.064" y="1.67" class="j">this</text><text x="37.074" y="1.67" class="j">though,</text><text x="45.09" y="1.67" class="j">such</text><text x="50.1" y="1.67" class="j">as</text><text x="53.106" y="1.67" class="j">with</text><text x="58.116" y="1.67" class="j">the</text><path class="m" d="M62.124 0h6v2.171h-6z"/><text x="62.124" y="1.67" class="n">`%&gt;&gt;%`</text><text x="69.138" y="1.67" class="j">operator</text><text x="78.156" y="1.67" class="j">though!</text></symbol><symbol id="9"><text y="1.67" class="j">→</text><text x="2.004" y="1.67" class="j">Make</text><text x="7.014" y="1.67" class="j">your</text><text x="12.024" y="1.67" class="j">code</text><text x="17.034" y="1.67" class="j">output</text><text x="24.048" y="1.67" class="j">a</text><text x="26.052" y="1.67" class="j">bit</text><text x="30.06" y="1.67" class="j">easier</text><text x="37.074" y="1.67" class="j">to</text><text x="40.08" y="1.67" class="j">manage,</text><text x="48.096" y="1.67" class="j">with</text><text x="53.106" y="1.67" class="i">logdec</text><text x="59.118" y="1.67" class="j">!</text><text x="61.122" y="1.67" style="white-space:pre" fill="#e88388">♥</text></symbol><symbol id="a"><path fill="transparent" d="M0 0h125v16H0z"/></symbol><symbol id="b"><path fill="#6f7683" d="M0 0h1.102v2.171H0z"/></symbol></defs><path class="a" d="M0 0h125v34.736H0z"/><g style="animation-duration:23.639986s;animation-iteration-count:infinite;animation-name:t;animation-timing-function:steps(1,end)"><svg width="1500"><svg><use xlink:href="#a"/><use xlink:href="#b" x="-.004"/></svg><svg x="125"><use xlink:href="#a"/><use xlink:href="#b" x="18.996"/><use xlink:href="#1"/></svg><svg x="250"><use xlink:href="#a"/><use xlink:href="#b" x="18.996"/><use xlink:href="#1"/></svg><svg x="375"><use xlink:href="#a"/><use xlink:href="#b" x="-.004" y="2.146"/><use xlink:href="#2"/></svg><svg x="500"><use xlink:href="#a"/><use xlink:href="#b" x="-.004" y="4.317"/><use xlink:href="#2"/><use xlink:href="#3" y="2.171"/></svg><svg x="625"><use xlink:href="#a"/><use xlink:href="#b" x="-.004" y="6.488"/><use xlink:href="#2"/><use xlink:href="#3" y="2.171"/><use xlink:href="#4" y="4.342"/></svg><svg x="750"><use xlink:href="#a"/><use xlink:href="#b" x="-.004" y="8.659"/><use xlink:href="#2"/><use xlink:href="#3" y="2.171"/><use xlink:href="#4" y="4.342"/><use xlink:href="#5" y="6.513"/></svg><svg x="875"><use xlink:href="#a"/><use xlink:href="#b" x="-.004" y="10.83"/><use xlink:href="#2"/><use xlink:href="#3" y="2.171"/><use xlink:href="#4" y="4.342"/><use xlink:href="#5" y="6.513"/><use xlink:href="#6" y="8.684"/></svg><svg x="1000"><use xlink:href="#a"/><use xlink:href="#b" x="-.004" y="13.001"/><use xlink:href="#2"/><use xlink:href="#3" y="2.171"/><use xlink:href="#4" y="4.342"/><use xlink:href="#5" y="6.513"/><use xlink:href="#6" y="8.684"/><use xlink:href="#7" y="10.855"/></svg><svg x="1125"><use xlink:href="#a"/><use xlink:href="#b" x="-.004" y="15.172"/><use xlink:href="#2"/><use xlink:href="#3" y="2.171"/><use xlink:href="#4" y="4.342"/><use xlink:href="#5" y="6.513"/><use xlink:href="#6" y="8.684"/><use xlink:href="#7" y="10.855"/><use xlink:href="#8" y="13.026"/></svg><svg x="1250"><use xlink:href="#a"/><use xlink:href="#b" x="-.004" y="17.343"/><use xlink:href="#2"/><use xlink:href="#3" y="2.171"/><use xlink:href="#4" y="4.342"/><use xlink:href="#5" y="6.513"/><use xlink:href="#6" y="8.684"/><use xlink:href="#7" y="10.855"/><use xlink:href="#8" y="13.026"/><use xlink:href="#9" y="15.197"/></svg><svg x="1375"><use xlink:href="#a"/><use xlink:href="#b" x="-.004" y="19.514"/><use xlink:href="#2"/><use xlink:href="#3" y="2.171"/><use xlink:href="#4" y="4.342"/><use xlink:href="#5" y="6.513"/><use xlink:href="#6" y="8.684"/><use xlink:href="#7" y="10.855"/><use xlink:href="#8" y="13.026"/><use xlink:href="#9" y="15.197"/></svg></svg></g></g></svg></svg>